<svg width="19" height="88" viewBox="0 0 19 88" fill="none" xmlns="http://www.w3.org/2000/svg">
<path d="M6.5 43.1074V11.1074L9 1.60742H10L12.5 11.1074V43.1074M6.5 43.1074H12.5M6.5 43.1074L2 43.6074V47.1074L5 48.6074V52.6074L2 54.6074V79.6074L7 85.6074H13L17 79.6074V54.6074L14 52.6074V48.6074L16.5 47.1074V43.6074L12.5 43.1074M8.5 56.6074V80.1074M8.5 56.6074L11 80.1074M8.5 56.6074H9.125M8.5 80.1074L11 56.6074M8.5 80.1074H9M11 80.1074V56.6074M11 80.1074H10.375M11 56.6074H10.375M9.75 80.1074V56.6074M9.75 80.1074H9M9.75 80.1074H10.375M9.75 56.6074H9.125M9.75 56.6074H10.375M9.125 56.6074L9 80.1074M10.375 80.1074V56.6074" stroke="#D2153D" stroke-width="3"/>
</svg>
