<svg width="88" height="87" viewBox="0 0 88 87" fill="none" xmlns="http://www.w3.org/2000/svg">
<path d="M65.5 1.55371H86V82.0537C85.0409 83.7971 84.3257 84.4279 82.5 84.5537C80.4702 84.2004 79.8614 83.6074 79.5 82.0537V72.0537C79.1114 71.0295 78.6987 70.5326 77 70.0537C75.7445 70.2719 75.1908 70.6869 74.5 72.0537V76.0537C73.9428 77.5837 73.3373 78.0571 72 78.5537C70.5363 77.9473 69.8024 77.5032 69 76.0537V64.0537C66.7353 63.1215 65.6165 62.4154 65 59.5537L65.5 34.5537M65.5 1.55371H50M65.5 1.55371V34.5537M50 1.55371H46.5C43.2069 7.42183 40.8399 9.9857 35.5 13.0537L17.5 11.0537C9.39598 12.1008 5.86829 13.3318 2 17.0537C5.42073 22.7817 9.0972 23.8743 17.5 23.5537L35.5 22.0537C40.8069 25.1898 43.3012 27.7803 46.5 34.5537H50M50 1.55371V34.5537M50 34.5537H65.5M72 8.05371V49.5537M78 5.55371V55.2903M77 59.0537V61.0537M77 59.0537H78H79M77 59.0537L79 61.0537M77 61.0537H78H79M77 61.0537L79 59.0537M79 61.0537V59.0537M71 51.0537H73M71 51.0537V53.0537M71 51.0537L73 53.0537M73 51.0537V53.0537M73 51.0537L71 53.0537M73 53.0537H71" stroke="#D2153D" stroke-width="3"/>
</svg>
